<svg width="62" height="62" viewBox="0 0 62 62" fill="none" xmlns="http://www.w3.org/2000/svg">
<path fill-rule="evenodd" clip-rule="evenodd" d="M31 62C13.8791 62 0 48.1209 0 31C0 13.8791 13.8791 0 31 0C48.1209 0 62 13.8791 62 31C62 48.1209 48.1209 62 31 62ZM31 59.7857C46.8979 59.7857 59.7857 46.8979 59.7857 31C59.7857 15.1021 46.8979 2.21429 31 2.21429C15.1021 2.21429 2.21429 15.1021 2.21429 31C2.21429 46.8979 15.1021 59.7857 31 59.7857Z" fill="#05172D"/>
<path fill-rule="evenodd" clip-rule="evenodd" d="M7.01084 20.4007C8.33752 17.2279 10.2412 15.3838 10.7552 14.8621C11.2692 14.3408 11.999 14.5952 12.4877 14.8621C12.9764 15.1294 25.2271 27.4001 25.7741 28.0163C26.3207 28.6325 26.9002 29.5517 25.3309 29.5517C23.7613 29.5517 8.34163 29.417 7.01084 29.3252C5.67974 29.2332 5.28687 28.4569 5.28687 27.7939C5.28687 27.1309 5.68385 23.5738 7.01084 20.4007ZM21.8314 6.75026C25.0133 5.44478 27.2817 5.53051 28.014 5.52545C28.7463 5.52039 29.0822 6.21599 29.2391 6.75026C29.3957 7.28486 29.5096 24.7287 29.4605 25.5508C29.4112 26.3733 29.4248 27.2852 28.3151 26.1752C27.2051 25.0656 16.3969 14.0669 15.521 13.061C14.6448 12.0547 14.9158 11.2279 15.385 10.7591C15.8538 10.2903 18.6491 8.05606 21.8314 6.75026ZM41.2829 7.0106C44.4557 8.33727 46.2999 10.2409 46.8215 10.755C47.3428 11.269 47.0885 11.9988 46.8215 12.4875C46.5542 12.9762 34.2836 25.2269 33.6674 25.7738C33.0512 26.3204 32.1319 26.8999 32.1319 25.3307C32.1319 23.761 32.2667 8.34139 32.3584 7.0106C32.4505 5.6795 33.2267 5.28662 33.8897 5.28662C34.5528 5.28662 38.1099 5.68361 41.2829 7.0106ZM54.9334 21.8311C56.2388 25.0131 56.1531 27.2814 56.1582 28.0137C56.1632 28.746 55.4676 29.082 54.9334 29.2389C54.3988 29.3954 36.9549 29.5093 36.1328 29.4603C35.3104 29.4109 34.3984 29.4245 35.5084 28.3149C36.6181 27.2049 47.6167 16.3966 48.6227 15.5207C49.6289 14.6445 50.4558 14.9156 50.9246 15.3847C51.3934 15.8535 53.6276 18.6489 54.9334 21.8311ZM54.673 41.599C53.3464 44.7718 51.4427 46.616 50.9287 47.1376C50.4146 47.6589 49.6849 47.4046 49.1962 47.1376C48.7074 46.8703 36.4567 34.5997 35.9098 33.9834C35.3632 33.3672 34.7837 32.448 36.353 32.448C37.9226 32.448 53.3422 32.5828 54.673 32.6745C56.0041 32.7665 56.397 33.5428 56.397 34.2058C56.397 34.8688 56 38.4259 54.673 41.599ZM39.8525 55.2495C36.6706 56.5549 34.4022 56.4692 33.6699 56.4743C32.9376 56.4793 32.6017 55.7837 32.4448 55.2495C32.2882 54.7149 32.1743 37.271 32.2233 36.4489C32.2727 35.6264 32.2591 34.7145 33.3688 35.8245C34.4787 36.9341 45.287 47.9328 46.1629 48.9387C47.0391 49.945 46.768 50.7718 46.2989 51.2406C45.8301 51.7094 43.0344 53.9437 39.8522 55.2495H39.8525ZM20.4009 54.9891C17.2282 53.6624 15.384 51.7588 14.8624 51.2448C14.3411 50.7307 14.5954 50.001 14.8624 49.5122C15.1297 49.0235 27.4003 36.7728 28.0165 36.2259C28.6327 35.6793 29.552 35.0998 29.552 36.6691C29.552 38.2387 29.4172 53.6583 29.3255 54.9891C29.2334 56.3202 28.4571 56.7131 27.7941 56.7131C27.1311 56.7131 23.574 56.3161 20.4009 54.9891ZM6.75051 40.1686C5.44503 36.9867 5.53075 34.7183 5.52569 33.986C5.52063 33.2537 6.21623 32.9177 6.75051 32.7608C7.2851 32.6043 24.7289 32.4904 25.5511 32.5394C26.3735 32.5888 27.2855 32.5752 26.1755 33.6848C25.0658 34.7948 14.0671 45.6031 13.0612 46.479C12.055 47.3552 11.2281 47.0841 10.7593 46.615C10.2905 46.1462 8.0563 43.3505 6.75051 40.1683V40.1686Z" fill="#05172D"/>
</svg>
